<svg xmlns="http://www.w3.org/2000/svg" viewBox="0 0 400 300" fill="none">
  <rect width="400" height="300" rx="16" fill="#eff6ff"/>
  <!-- Left card -->
  <rect x="30" y="50" width="150" height="200" rx="12" fill="white" stroke="#bfdbfe" stroke-width="2"/>
  <circle cx="105" cy="100" r="28" fill="#dbeafe"/>
  <text x="105" y="107" text-anchor="middle" fill="#2563eb" font-size="18" font-family="system-ui" font-weight="700">A</text>
  <rect x="55" y="140" width="100" height="8" rx="4" fill="#bfdbfe"/>
  <rect x="65" y="158" width="80" height="6" rx="3" fill="#e2e8f0"/>
  <rect x="65" y="172" width="80" height="6" rx="3" fill="#e2e8f0"/>
  <rect x="55" y="195" width="100" height="8" rx="4" fill="#bfdbfe"/>
  <rect x="65" y="213" width="80" height="6" rx="3" fill="#e2e8f0"/>
  <!-- Right card -->
  <rect x="220" y="50" width="150" height="200" rx="12" fill="white" stroke="#bfdbfe" stroke-width="2"/>
  <circle cx="295" cy="100" r="28" fill="#dbeafe"/>
  <text x="295" y="107" text-anchor="middle" fill="#2563eb" font-size="18" font-family="system-ui" font-weight="700">B</text>
  <rect x="245" y="140" width="100" height="8" rx="4" fill="#bfdbfe"/>
  <rect x="255" y="158" width="80" height="6" rx="3" fill="#e2e8f0"/>
  <rect x="255" y="172" width="80" height="6" rx="3" fill="#e2e8f0"/>
  <rect x="245" y="195" width="100" height="8" rx="4" fill="#bfdbfe"/>
  <rect x="255" y="213" width="80" height="6" rx="3" fill="#e2e8f0"/>
  <!-- VS badge -->
  <circle cx="200" cy="150" r="24" fill="#2563eb"/>
  <text x="200" y="156" text-anchor="middle" fill="white" font-size="14" font-family="system-ui" font-weight="800">VS</text>
  <!-- Arrows -->
  <path d="M170,150 L178,150" stroke="#2563eb" stroke-width="2"/>
  <path d="M222,150 L230,150" stroke="#2563eb" stroke-width="2"/>
</svg>
