<svg xmlns="http://www.w3.org/2000/svg" viewBox="0 0 600 400" fill="none">
  <!-- Background chart grid -->
  <rect width="600" height="400" rx="16" fill="#1e40af" fill-opacity="0.15"/>
  <line x1="50" y1="50" x2="50" y2="350" stroke="#93c5fd" stroke-opacity="0.3" stroke-width="1"/>
  <line x1="150" y1="50" x2="150" y2="350" stroke="#93c5fd" stroke-opacity="0.3" stroke-width="1"/>
  <line x1="250" y1="50" x2="250" y2="350" stroke="#93c5fd" stroke-opacity="0.3" stroke-width="1"/>
  <line x1="350" y1="50" x2="350" y2="350" stroke="#93c5fd" stroke-opacity="0.3" stroke-width="1"/>
  <line x1="450" y1="50" x2="450" y2="350" stroke="#93c5fd" stroke-opacity="0.3" stroke-width="1"/>
  <line x1="550" y1="50" x2="550" y2="350" stroke="#93c5fd" stroke-opacity="0.3" stroke-width="1"/>
  <line x1="50" y1="100" x2="550" y2="100" stroke="#93c5fd" stroke-opacity="0.3" stroke-width="1"/>
  <line x1="50" y1="150" x2="550" y2="150" stroke="#93c5fd" stroke-opacity="0.3" stroke-width="1"/>
  <line x1="50" y1="200" x2="550" y2="200" stroke="#93c5fd" stroke-opacity="0.3" stroke-width="1"/>
  <line x1="50" y1="250" x2="550" y2="250" stroke="#93c5fd" stroke-opacity="0.3" stroke-width="1"/>
  <line x1="50" y1="300" x2="550" y2="300" stroke="#93c5fd" stroke-opacity="0.3" stroke-width="1"/>
  <!-- Candlesticks -->
  <line x1="80" y1="180" x2="80" y2="280" stroke="#60a5fa" stroke-width="2"/>
  <rect x="72" y="200" width="16" height="50" fill="#3b82f6" rx="2"/>
  <line x1="120" y1="160" x2="120" y2="260" stroke="#60a5fa" stroke-width="2"/>
  <rect x="112" y="170" width="16" height="60" fill="#ef4444" rx="2"/>
  <line x1="160" y1="140" x2="160" y2="240" stroke="#60a5fa" stroke-width="2"/>
  <rect x="152" y="150" width="16" height="55" fill="#3b82f6" rx="2"/>
  <line x1="200" y1="120" x2="200" y2="220" stroke="#60a5fa" stroke-width="2"/>
  <rect x="192" y="130" width="16" height="65" fill="#3b82f6" rx="2"/>
  <line x1="240" y1="130" x2="240" y2="230" stroke="#60a5fa" stroke-width="2"/>
  <rect x="232" y="150" width="16" height="50" fill="#ef4444" rx="2"/>
  <line x1="280" y1="100" x2="280" y2="200" stroke="#60a5fa" stroke-width="2"/>
  <rect x="272" y="110" width="16" height="60" fill="#3b82f6" rx="2"/>
  <line x1="320" y1="90" x2="320" y2="190" stroke="#60a5fa" stroke-width="2"/>
  <rect x="312" y="100" width="16" height="55" fill="#3b82f6" rx="2"/>
  <line x1="360" y1="110" x2="360" y2="210" stroke="#60a5fa" stroke-width="2"/>
  <rect x="352" y="130" width="16" height="50" fill="#ef4444" rx="2"/>
  <line x1="400" y1="80" x2="400" y2="180" stroke="#60a5fa" stroke-width="2"/>
  <rect x="392" y="90" width="16" height="60" fill="#3b82f6" rx="2"/>
  <line x1="440" y1="70" x2="440" y2="170" stroke="#60a5fa" stroke-width="2"/>
  <rect x="432" y="80" width="16" height="55" fill="#3b82f6" rx="2"/>
  <line x1="480" y1="90" x2="480" y2="190" stroke="#60a5fa" stroke-width="2"/>
  <rect x="472" y="100" width="16" height="60" fill="#ef4444" rx="2"/>
  <line x1="520" y1="60" x2="520" y2="160" stroke="#60a5fa" stroke-width="2"/>
  <rect x="512" y="70" width="16" height="55" fill="#3b82f6" rx="2"/>
  <!-- Trend line -->
  <line x1="70" y1="250" x2="530" y2="80" stroke="#fbbf24" stroke-width="3" stroke-dasharray="8 4" stroke-opacity="0.8"/>
  <!-- Moving average curve -->
  <path d="M70,240 Q150,210 200,180 T320,130 T440,100 T530,90" stroke="#34d399" stroke-width="2.5" fill="none" stroke-opacity="0.8"/>
  <!-- Price label -->
  <rect x="460" y="48" width="90" height="28" rx="6" fill="#3b82f6"/>
  <text x="505" y="67" text-anchor="middle" fill="white" font-size="13" font-family="system-ui" font-weight="600">$3,350.50</text>
  <!-- Arrow up -->
  <polygon points="540,340 555,310 525,310" fill="#34d399" opacity="0.9"/>
  <text x="540" y="365" text-anchor="middle" fill="#34d399" font-size="14" font-family="system-ui" font-weight="700">+2.4%</text>
</svg>
